<?xml version="1.0" standalone="no"?>
<!DOCTYPE svg PUBLIC "-//W3C//DTD SVG 20010904//EN"
 "http://www.w3.org/TR/2001/REC-SVG-20010904/DTD/svg10.dtd">
<svg version="1.0" xmlns="http://www.w3.org/2000/svg"
 width="233.000000pt" height="217.000000pt" viewBox="0 0 233.000000 217.000000"
 preserveAspectRatio="xMidYMid meet">

<g transform="translate(0.000000,217.000000) scale(0.100000,-0.100000)"
fill="#000000" stroke="none">
<path d="M1335 2004 c-137 -33 -216 -65 -274 -114 -73 -60 -103 -76 -226 -115
-55 -18 -124 -42 -153 -54 l-52 -21 5 28 c4 21 2 20 -7 -6 -8 -25 -15 -31 -27
-25 -29 14 -95 8 -125 -12 -18 -12 -24 -21 -16 -23 7 -3 17 3 22 11 12 23 72
32 108 17 46 -19 56 -94 15 -115 -11 -6 -33 -19 -48 -29 -27 -19 -28 -19 -52
4 -14 13 -27 31 -30 42 -5 14 -10 16 -25 8 -26 -14 -37 -13 -44 5 -3 9 3 24
14 35 11 11 16 20 11 20 -21 0 -43 -34 -38 -59 5 -24 -3 -31 -86 -81 -226
-136 -288 -213 -167 -212 31 1 76 19 185 77 l144 75 11 -32 10 -33 -4 35 -4
35 130 68 c122 63 132 67 153 53 27 -18 37 -60 20 -83 -11 -15 -17 -15 -39 -5
-15 7 -35 12 -44 11 -10 0 -5 -5 11 -11 21 -7 27 -14 21 -27 -36 -87 -39 -156
-9 -226 14 -33 149 -205 172 -218 7 -5 19 -6 26 -3 7 2 5 5 -4 5 -9 1 -29 17
-43 36 -15 19 -40 49 -57 67 -52 57 -89 144 -89 209 0 70 9 96 51 143 48 55
82 69 189 76 l95 7 -75 1 c-69 1 -121 -6 -161 -22 -11 -5 -19 1 -27 19 -7 14
-22 29 -34 34 l-22 8 24 13 c14 7 57 35 97 61 78 52 146 89 163 89 16 0 -1
-74 -34 -150 -5 -12 3 -19 30 -29 42 -15 51 -9 59 39 l6 35 -15 -32 c-15 -33
-30 -40 -54 -24 -11 6 -9 20 7 69 12 34 21 69 21 78 0 14 7 16 37 11 20 -4 40
-12 45 -19 5 -7 6 -40 4 -73 -6 -71 1 -54 12 29 l7 59 43 13 c24 7 85 33 136
58 51 25 95 46 99 46 4 0 7 -15 7 -34 0 -18 7 -53 15 -76 16 -44 13 -60 -10
-60 -8 0 -57 -22 -110 -49 l-95 -49 -1 32 c-1 30 -1 29 -10 -9 -15 -64 -57
-78 -52 -17 3 37 3 37 -12 -10 -17 -52 -37 -62 -74 -39 -21 13 -23 13 -19 1 2
-8 19 -19 36 -24 32 -9 68 5 202 80 32 18 39 20 25 7 -11 -10 -35 -39 -54 -63
-32 -42 -30 -41 30 16 101 96 109 103 158 119 70 23 137 1 205 -69 104 -105
171 -256 211 -476 l14 -75 -6 74 c-5 68 -4 73 13 68 11 -3 36 -8 56 -12 21 -3
54 -13 74 -21 31 -13 34 -17 22 -32 -12 -15 -11 -16 5 -3 10 8 25 28 33 45 15
31 15 31 -3 9 l-18 -22 -70 24 c-38 14 -82 25 -96 25 -22 0 -28 6 -37 39 -10
40 -9 40 22 44 l31 4 -31 1 c-29 2 -33 7 -54 65 -56 151 -124 248 -219 309
-33 21 -57 28 -92 28 l-47 0 -17 50 c-21 63 -13 124 19 146 13 8 28 26 35 41
11 23 10 29 -5 40 -23 17 -102 15 -179 -3z m153 -12 c2 -7 0 -12 -5 -10 -4 1
-51 -19 -103 -44 -52 -26 -142 -63 -200 -82 -102 -36 -170 -64 -180 -77 -3 -4
-30 -14 -60 -22 -30 -9 -104 -41 -164 -72 -59 -30 -114 -55 -121 -55 -7 0 -15
11 -18 25 -4 22 2 29 37 47 22 12 91 38 151 58 153 52 177 64 230 110 26 22
63 49 83 59 31 15 165 58 237 74 38 9 108 2 113 -11z m-1006 -433 c10 -16 13
-27 8 -24 -6 3 -10 1 -10 -6 0 -7 -3 -10 -6 -6 -5 5 -99 -40 -149 -71 -5 -4
-12 -7 -15 -8 -13 -2 -87 -40 -98 -51 -7 -7 -18 -14 -23 -14 -5 -1 -14 -2 -19
-3 -6 0 -15 -8 -20 -16 -5 -8 -10 -11 -10 -6 0 5 -7 3 -15 -4 -34 -28 -12 10
25 44 36 32 173 126 185 126 2 0 30 16 62 35 32 19 60 35 63 35 3 0 13 -14 22
-31z"/>
<path d="M1710 1983 c19 -9 10 -39 -15 -53 -14 -7 -23 -15 -20 -18 2 -3 16 3
30 12 27 18 32 57 7 62 -7 1 -8 0 -2 -3z"/>
<path d="M532 1908 c-7 -7 -11 -32 -10 -57 l1 -46 4 42 c5 49 23 68 58 59 30
-8 42 -29 55 -98 l9 -53 -3 59 c-2 50 -7 63 -30 83 -30 25 -65 30 -84 11z"/>
<path d="M1831 1803 c15 -22 20 -39 15 -58 -4 -17 -3 -24 4 -20 18 11 11 53
-16 82 l-25 28 22 -32z"/>
<path d="M1678 1783 c7 -3 16 -2 19 1 4 3 -2 6 -13 5 -11 0 -14 -3 -6 -6z"/>
<path d="M1760 1756 c14 -7 36 -16 50 -20 14 -3 7 3 -15 13 -45 22 -73 27 -35
7z"/>
<path d="M1505 1579 c-20 -18 -43 -45 -51 -61 -13 -25 -8 -22 29 16 36 38 50
46 79 46 21 0 46 -9 63 -22 18 -14 26 -17 23 -7 -6 19 -66 59 -89 59 -10 0
-34 -14 -54 -31z"/>
<path d="M1195 1515 c-25 -12 -26 -14 -5 -9 28 7 60 23 45 23 -5 0 -23 -6 -40
-14z"/>
<path d="M625 1477 c-7 -18 -23 -41 -35 -52 -19 -17 -21 -26 -15 -73 8 -68 42
-171 63 -195 17 -19 123 -81 157 -92 11 -4 -6 8 -38 26 -102 57 -124 83 -152
183 -29 102 -31 132 -10 140 9 3 23 23 32 43 8 21 20 41 27 45 8 6 7 8 -2 8
-7 0 -19 -15 -27 -33z"/>
<path d="M1024 1446 c-19 -19 -34 -42 -34 -52 1 -16 3 -15 14 5 27 48 102 66
159 36 15 -8 25 -9 21 -4 -9 15 -84 49 -107 49 -11 0 -34 -15 -53 -34z"/>
<path d="M1558 1473 c7 -3 16 -2 19 1 4 3 -2 6 -13 5 -11 0 -14 -3 -6 -6z"/>
<path d="M1486 1441 c-23 -26 -46 -87 -46 -124 0 -35 1 -36 64 -38 34 0 76 36
75 65 0 15 -2 16 -6 6 -23 -62 -123 -72 -123 -11 1 22 2 24 11 9 12 -21 49
-24 67 -6 18 18 15 27 -8 21 -23 -6 -27 15 -7 36 10 11 7 13 -16 9 -27 -5 -27
-5 -11 13 23 25 49 24 75 -3 21 -22 21 -22 10 -2 -6 12 -24 27 -40 32 -24 8
-32 7 -45 -7z"/>
<path d="M1641 1434 c36 -39 49 -67 49 -102 0 -26 -4 -31 -37 -37 -45 -8 -110
-44 -138 -75 -13 -15 -3 -11 30 12 52 37 103 58 139 58 47 0 16 114 -42 154
l-27 19 26 -29z"/>
<path d="M472 1370 c0 -14 2 -19 5 -12 2 6 2 18 0 25 -3 6 -5 1 -5 -13z"/>
<path d="M1069 1311 c-39 -39 -44 -55 -39 -126 1 -16 6 -37 12 -45 7 -11 8 -6
4 17 -5 31 -4 32 27 31 58 -2 99 37 96 90 0 9 -5 3 -10 -15 -8 -26 -17 -35
-48 -44 -43 -13 -71 -7 -71 14 0 9 9 12 28 9 18 -2 33 2 41 12 11 13 11 16 -2
16 -25 0 -28 16 -8 39 22 25 37 27 45 5 4 -9 9 -14 13 -10 7 7 -26 46 -40 46
-5 0 -27 -17 -48 -39z"/>
<path d="M462 1242 c-1 -57 3 -124 9 -149 14 -52 36 -66 129 -78 30 -4 84 -18
119 -31 82 -31 91 -30 21 2 -30 14 -88 32 -128 40 -126 24 -131 31 -142 204
l-7 115 -1 -103z"/>
<path d="M1260 1305 c13 -14 26 -25 28 -25 3 0 -5 11 -18 25 -13 14 -26 25
-28 25 -3 0 5 -11 18 -25z"/>
<path d="M1988 1313 c12 -2 30 -2 40 0 9 3 -1 5 -23 4 -22 0 -30 -2 -17 -4z"/>
<path d="M2113 1296 c56 -15 97 -50 97 -83 0 -25 -34 -65 -184 -220 -39 -40
-66 -73 -61 -73 6 1 44 37 85 82 41 45 99 105 128 135 28 29 52 62 52 72 0 47
-80 102 -145 100 -11 0 2 -6 28 -13z"/>
<path d="M1305 1186 c0 -35 3 -62 8 -59 9 5 8 82 -1 106 -4 9 -7 -12 -7 -47z"/>
<path d="M1460 1224 c0 -6 7 -19 16 -30 14 -18 14 -18 3 6 -14 31 -19 36 -19
24z"/>
<path d="M1085 1151 c-11 -5 12 -6 55 -4 98 6 112 11 30 12 -36 0 -74 -4 -85
-8z"/>
<path d="M1980 1078 l-65 -60 -6 28 -7 29 -1 -32 c0 -17 3 -34 7 -37 5 -3 40
26 77 64 38 39 67 70 65 70 -3 -1 -34 -28 -70 -62z"/>
<path d="M1664 1093 c-9 -16 -36 -46 -58 -67 -23 -22 -31 -31 -18 -21 20 16
25 17 32 5 8 -12 10 -12 10 3 0 10 11 33 24 50 28 39 39 57 33 57 -3 0 -13
-12 -23 -27z"/>
<path d="M948 1013 c7 -3 16 -2 19 1 4 3 -2 6 -13 5 -11 0 -14 -3 -6 -6z"/>
<path d="M1180 984 c-24 -13 -36 -24 -27 -24 10 0 26 6 37 12 16 10 24 10 40
0 29 -18 39 -15 12 4 -12 8 -20 20 -17 25 4 5 5 8 3 8 -2 -1 -23 -12 -48 -25z"/>
<path d="M2158 984 c-15 -8 -35 -28 -43 -44 -21 -41 -19 -51 3 -15 34 55 79
76 106 50 9 -9 16 -13 16 -8 0 14 -23 33 -39 33 -9 -1 -28 -7 -43 -16z"/>
<path d="M1611 964 c0 -11 3 -14 6 -6 3 7 2 16 -1 19 -3 4 -6 -2 -5 -13z"/>
<path d="M1465 953 c-41 -15 -142 -14 -179 2 -10 4 22 -30 72 -77 162 -154
262 -159 262 -13 0 55 -13 88 -23 61 -3 -8 -20 -22 -37 -31 l-30 -16 -17 36
c-15 31 -15 37 -3 45 21 13 2 10 -45 -7z m-7 -61 c-26 -11 4 -43 44 -47 44 -4
75 9 83 34 8 26 25 28 25 3 0 -10 -12 -29 -26 -43 -34 -32 -115 -34 -156 -4
-15 11 -28 25 -28 31 0 12 37 33 60 33 12 0 11 -2 -2 -7z"/>
<path d="M825 946 c17 -7 41 -16 55 -20 20 -5 19 -3 -5 8 -16 7 -41 16 -55 20
-20 5 -19 3 5 -8z"/>
<path d="M1913 895 c0 -38 2 -53 4 -32 2 20 2 52 0 70 -2 17 -4 1 -4 -38z"/>
<path d="M2220 930 c-10 -7 -11 -10 -2 -10 20 0 13 -40 -13 -72 -14 -16 -25
-35 -25 -41 0 -7 8 0 18 14 9 15 25 38 35 51 21 30 12 73 -13 58z"/>
<path d="M930 907 c32 -16 41 -56 42 -187 1 -69 -5 -127 -16 -169 -20 -80 -16
-90 8 -15 45 142 35 364 -17 378 -36 9 -44 7 -17 -7z"/>
<path d="M2045 895 c11 -8 28 -22 38 -30 13 -12 17 -12 17 -2 0 8 -12 20 -27
28 -42 20 -50 22 -28 4z"/>
<path d="M998 893 c7 -3 16 -2 19 1 4 3 -2 6 -13 5 -11 0 -14 -3 -6 -6z"/>
<path d="M1038 883 c7 -3 16 -2 19 1 4 3 -2 6 -13 5 -11 0 -14 -3 -6 -6z"/>
<path d="M2122 830 c0 -14 2 -19 5 -12 2 6 2 18 0 25 -3 6 -5 1 -5 -13z"/>
<path d="M1924 801 c12 -19 107 -61 136 -60 17 0 10 4 -20 13 -26 6 -63 23
-85 36 -21 13 -35 18 -31 11z"/>
<path d="M2162 770 c-6 -10 -26 -21 -44 -23 l-33 -4 37 -1 c29 -2 40 3 48 19
15 26 8 34 -8 9z"/>
<path d="M1913 710 c0 -36 2 -50 4 -32 2 17 2 47 0 65 -2 17 -4 3 -4 -33z"/>
<path d="M1513 665 c-48 -20 -116 -88 -192 -189 -150 -201 -288 -286 -364
-225 -39 30 -50 83 -32 154 9 32 14 60 12 62 -10 10 -42 -119 -42 -170 0 -74
23 -97 94 -97 101 0 185 65 325 249 40 53 91 115 114 139 36 38 43 41 66 32
86 -32 155 -91 211 -179 20 -32 50 -65 65 -75 27 -16 29 -15 58 9 35 29 70
122 78 206 l5 54 -19 -66 c-21 -74 -59 -147 -84 -163 -27 -16 -61 6 -121 81
-49 63 -77 86 -162 138 l-30 19 40 18 c22 9 33 17 25 17 -8 0 -29 -6 -47 -14z"/>
</g>
</svg>
