<?xml version="1.0" standalone="no"?>
<!DOCTYPE svg PUBLIC "-//W3C//DTD SVG 20010904//EN"
 "http://www.w3.org/TR/2001/REC-SVG-20010904/DTD/svg10.dtd">
<svg version="1.0" xmlns="http://www.w3.org/2000/svg"
 width="860.000000pt" height="933.000000pt" viewBox="0 0 860.000000 933.000000"
 preserveAspectRatio="xMidYMid meet">

<g transform="translate(0.000000,933.000000) scale(0.100000,-0.100000)"
fill="#000000" stroke="none">
<path d="M3830 8914 c-92 -12 -253 -46 -320 -69 -40 -14 -116 -48 -169 -76
-87 -47 -157 -92 -411 -270 -141 -98 -306 -155 -520 -179 -58 -6 -289 -15
-515 -20 -590 -13 -791 -43 -1011 -150 -275 -134 -438 -351 -529 -706 -75
-289 -65 -516 34 -795 68 -193 142 -329 353 -651 148 -227 200 -320 223 -400
16 -55 15 -61 -9 -170 -35 -159 -50 -311 -43 -458 10 -208 61 -355 158 -452
44 -43 77 -63 181 -106 47 -19 58 -82 68 -382 10 -333 5 -313 145 -575 l48
-90 -6 -120 c-13 -276 -106 -833 -227 -1365 -27 -118 -58 -278 -69 -355 -26
-173 -28 -401 -5 -513 30 -152 113 -280 213 -331 271 -139 788 19 1227 373
125 101 320 289 559 541 477 503 718 726 1007 933 94 68 149 95 171 86 8 -3
118 -134 244 -292 449 -561 695 -806 913 -911 70 -34 81 -36 170 -36 83 0 101
4 145 27 153 80 271 258 375 565 151 447 233 1031 301 2143 11 190 24 361 28
380 5 28 13 36 40 44 37 11 31 16 124 -103 73 -94 176 -153 357 -204 63 -17
104 -21 250 -21 173 -1 176 0 269 32 126 44 201 90 287 178 156 159 234 396
234 714 0 162 -21 276 -81 438 -56 149 -72 248 -49 293 7 13 39 58 71 99 87
113 165 243 200 333 26 69 30 92 27 149 -3 58 -8 72 -32 97 -41 43 -114 64
-216 64 -182 -1 -307 -71 -380 -213 -31 -60 -70 -201 -83 -300 -12 -85 -15
-95 -33 -92 -10 1 -67 5 -126 9 -128 7 -230 -7 -340 -47 -183 -67 -281 -175
-295 -326 l-6 -64 -113 0 -112 0 -7 78 c-39 460 -60 639 -116 977 -154 922
-398 1568 -710 1875 -186 184 -369 241 -625 195 -61 -11 -125 -16 -174 -13
-80 5 -111 17 -288 112 -144 77 -329 116 -582 121 -102 2 -201 1 -220 -1z
m525 -143 c44 -12 108 -35 143 -51 l62 -29 0 -43 c0 -75 -50 -125 -305 -302
-228 -159 -264 -172 -470 -162 -72 3 -264 9 -427 12 -287 6 -300 5 -370 -16
-89 -27 -207 -86 -364 -181 -170 -103 -316 -170 -501 -231 -90 -29 -161 -57
-160 -63 7 -20 98 -16 193 9 170 46 478 176 674 286 175 98 151 95 710 92 539
-3 538 -3 670 63 39 19 159 94 267 166 263 175 397 241 554 274 165 35 344 27
445 -19 238 -109 430 -429 603 -1005 102 -337 144 -515 201 -856 136 -806 156
-1672 70 -3160 -70 -1200 -249 -1855 -552 -2020 -41 -23 -59 -27 -103 -23 -68
6 -161 51 -268 131 -172 128 -521 501 -738 787 -93 124 -199 282 -194 290 7
12 116 74 439 251 164 90 292 165 283 167 -48 10 -387 -127 -677 -274 -431
-217 -671 -419 -1355 -1139 -388 -409 -534 -552 -673 -658 -166 -127 -285
-193 -450 -251 -129 -45 -237 -65 -382 -73 -162 -8 -212 7 -295 90 -88 88
-100 128 -99 322 2 181 17 282 89 603 85 376 102 460 134 679 38 247 86 626
101 793 6 69 13 130 15 136 2 8 18 8 57 -3 78 -21 131 -10 182 37 l41 38 41
-38 c46 -42 95 -60 165 -60 60 0 156 18 194 37 70 35 145 132 145 187 0 35 14
39 40 11 36 -38 101 -59 164 -52 113 11 189 67 227 165 36 94 37 349 3 548
l-6 30 139 0 c85 -1 158 4 190 12 72 19 138 65 171 121 24 41 27 56 27 141 0
80 -4 102 -23 138 -38 71 -128 110 -302 131 -132 16 -215 37 -335 82 -208 78
-460 126 -717 136 l-157 6 -6 37 c-7 44 11 304 29 409 8 42 12 78 10 80 -8 9
-33 -23 -53 -69 -20 -46 -30 -103 -65 -359 -9 -69 -21 -112 -33 -130 -11 -14
-60 -49 -109 -77 -49 -28 -110 -70 -136 -93 -55 -49 -114 -159 -143 -264 l-18
-69 -36 7 c-61 11 -157 63 -194 104 -85 94 -112 190 -111 381 3 256 51 458
164 679 l59 116 -59 -62 -58 -62 -55 97 c-31 53 -99 160 -153 237 -274 393
-344 511 -402 677 -121 342 -66 712 155 1046 162 245 398 383 745 437 69 10
231 19 488 25 784 20 908 50 1282 312 155 109 238 163 294 191 86 44 268 91
424 111 19 2 114 3 210 1 139 -2 191 -7 255 -24z m3790 -2246 c76 -38 101
-110 74 -210 -16 -58 -74 -170 -127 -245 -59 -84 -171 -214 -188 -218 -7 -2
-34 11 -59 28 -25 18 -82 50 -126 72 -74 37 -80 42 -75 66 3 15 8 52 12 82 15
129 83 285 157 360 66 67 126 91 217 88 49 -2 89 -10 115 -23z m-582 -580
c365 -77 539 -465 450 -1005 -49 -299 -189 -518 -393 -618 -117 -58 -193 -76
-320 -75 -117 0 -166 10 -279 53 -139 54 -246 157 -271 258 -22 94 22 196 109
251 82 52 160 73 386 100 64 8 58 9 -70 9 -157 1 -270 -15 -334 -48 l-43 -21
-23 21 c-34 32 -48 96 -43 202 5 107 30 168 95 230 44 42 141 90 228 113 46
12 263 35 330 35 5 0 5 4 -1 10 -5 5 -82 13 -169 16 -132 5 -172 3 -225 -10
-36 -10 -75 -20 -87 -23 -34 -8 -78 75 -78 147 1 235 399 427 738 355z m-773
-499 c0 -8 11 -27 24 -42 l23 -28 -49 -48 c-136 -132 -165 -371 -60 -481 l27
-29 -26 -21 c-40 -33 -69 -87 -69 -129 l0 -38 -50 0 -50 0 0 393 c0 215 3 402
6 415 6 21 11 22 115 22 88 0 109 -3 109 -14z m-4705 -475 c16 -6 7 -12 -45
-30 -90 -30 -243 -108 -326 -166 -92 -66 -219 -194 -273 -278 -24 -37 -46 -65
-49 -63 -10 11 31 153 64 224 88 184 257 290 499 312 108 10 107 10 130 1z
m425 -47 c36 -9 133 -43 217 -75 153 -59 204 -71 383 -87 114 -10 162 -31 198
-85 34 -51 42 -147 18 -212 -18 -47 -79 -109 -124 -126 -136 -52 -280 -24
-464 89 l-68 42 47 -63 c88 -118 143 -277 143 -411 0 -121 -51 -288 -111 -364
-54 -69 -125 -81 -201 -33 l-45 29 -5 100 c-4 84 -10 109 -35 163 -17 35 -46
82 -66 104 l-36 40 26 -64 c85 -214 56 -421 -70 -507 -86 -59 -214 -82 -276
-49 -60 31 -103 108 -132 239 -14 64 -27 56 -28 -20 -2 -112 -64 -209 -149
-235 -61 -18 -134 6 -201 67 -62 56 -123 174 -147 284 -23 103 -23 349 -1 447
50 220 157 390 334 532 156 126 241 163 468 206 96 18 232 13 325 -11z"/>
<path d="M5277 7709 c-88 -18 -118 -56 -83 -104 13 -18 17 -19 77 -5 35 8 105
15 155 15 86 0 95 -2 166 -38 46 -24 114 -72 174 -125 107 -94 107 -82 0 49
-134 164 -319 243 -489 208z"/>
<path d="M3193 7430 c-205 -135 -294 -356 -268 -665 9 -108 18 -94 35 54 29
260 106 393 294 508 92 56 104 71 90 110 -8 24 -16 28 -49 31 -33 2 -52 -5
-102 -38z"/>
<path d="M5300 7328 c-286 -100 -504 -538 -487 -978 12 -314 127 -512 319
-551 103 -21 221 25 331 130 138 131 253 373 293 616 20 123 14 358 -10 450
-73 268 -251 401 -446 333z m198 -72 c78 -41 147 -147 184 -285 29 -110 29
-318 -1 -458 -48 -227 -142 -418 -267 -538 -55 -53 -134 -104 -134 -86 0 6 4
11 9 11 6 0 37 26 71 57 156 144 248 346 238 523 -10 156 -103 261 -271 306
-173 46 -316 -24 -402 -199 -21 -42 -40 -76 -42 -74 -8 8 39 223 64 290 81
227 218 401 360 458 56 23 142 21 191 -5z m-104 -952 c23 -23 29 -59 15 -86
-16 -31 -28 -38 -68 -38 -69 0 -104 69 -59 117 26 27 88 32 112 7z"/>
<path d="M3580 7124 c-193 -52 -302 -238 -287 -493 27 -489 459 -999 850
-1003 182 -2 304 88 368 272 19 55 23 85 22 195 0 108 -5 147 -27 230 -52 193
-160 384 -299 532 -139 146 -285 237 -432 268 -86 18 -124 18 -195 -1z m203
-70 c223 -58 444 -264 578 -539 79 -163 102 -255 103 -415 1 -117 -2 -143 -22
-195 -12 -32 -29 -66 -38 -75 -15 -13 -16 -13 -11 1 35 103 34 331 -3 459 -47
163 -137 287 -246 341 -58 29 -75 33 -142 32 -169 -2 -316 -92 -380 -232 -61
-132 -12 -351 113 -515 20 -27 34 -50 31 -53 -9 -9 -108 92 -173 177 -77 102
-173 293 -204 410 -31 112 -34 317 -6 396 63 180 211 257 400 208z m561 -895
c68 -53 -16 -163 -89 -115 -37 25 -49 53 -35 86 21 50 80 64 124 29z"/>
<path d="M5653 5547 c114 -106 96 -253 -51 -409 -36 -38 -102 -93 -146 -123
-153 -101 -415 -189 -648 -216 -201 -23 -492 10 -680 77 -214 77 -513 268
-577 369 -25 40 -29 56 -34 160 -5 105 -15 145 -36 145 -4 0 -12 -32 -19 -70
-31 -180 -125 -366 -218 -429 -19 -14 -56 -30 -82 -37 l-47 -13 55 0 c97 0
195 51 231 121 56 109 161 55 430 -219 199 -203 264 -304 403 -632 148 -348
237 -460 408 -512 101 -31 251 -25 329 13 199 98 362 413 454 879 50 252 71
296 210 433 125 123 157 180 159 285 1 49 -4 76 -20 106 -21 40 -82 86 -134
100 -22 6 -21 3 13 -28z"/>
<path d="M5120 3604 c-128 -81 -318 -101 -466 -48 -42 15 28 -44 79 -68 78
-34 211 -33 287 3 64 30 117 74 143 118 10 17 17 31 15 31 -2 0 -28 -16 -58
-36z"/>
</g>
</svg>
